# xmcd
#
# Track frame offsets:
#  150
#  16429
#  31760
#  54267
#  69011
#  89382
#  105174
#  129188
#  143457
#  167521
#  182897
#  198059
#  216060
#  231242
#  248768
#  263672
#  292491
#  310808
#
# Disc length: 4422 seconds
#
# Revision: 0
# Processed by: cddbd v1.5.2PL0 Copyright (c) Steve Scherf et al.
# Submitted via: Collectorz.com_Music_Collector 6.11
#
DISCID=e6114412
DTITLE=Various Artist - The Alligator Records 20th Anniversary Collection (Disk 1)
DYEAR=1991
DGENRE=Blues
TTITLE0=01 Give Me Back My Wig - 01 Give Me Back My Wig
TTITLE1=02 No Cuttin - Loose
TTITLE2=03 Black Cat Bone - 03 Black Cat Bone
TTITLE3=04 Big Chief - 04 Big Chief
TTITLE4=05 That - s Why I'm Crying
TTITLE5=06 Double - Eyed Whammy
TTITLE6=07 I - m Free
TTITLE7=08 These Blues Is Killing Me - 08 These Blues Is Killing Me
TTITLE8=09 - Rain
TTITLE9=10 Look But Don - t Touch
TTITLE10=11 Fannie Mae - 11 Fannie Mae
TTITLE11=12 Serves Me Right to Suffer - 12 Serves Me Right to Suffer
TTITLE12=13 - Leavin'
TTITLE13=14 Born in Louisiana - 14 Born in Louisiana
TTITLE14=15 Leaving Your Town - 15 Leaving Your Town
TTITLE15=16 Drowning on Dry Land - 16 Drowning on Dry Land
TTITLE16=17 If I Hadn - t Been High
TTITLE17=18 Trouble in Mind - 18 Trouble in Mind
EXTD=
EXTT0=
EXTT1=
EXTT2=
EXTT3=
EXTT4=
EXTT5=
EXTT6=
EXTT7=
EXTT8=
EXTT9=
EXTT10=
EXTT11=
EXTT12=
EXTT13=
EXTT14=
EXTT15=
EXTT16=
EXTT17=
PLAYORDER=
